name rise35.5848peak51.9257fall54.8793.mot
datacolumns 19
datarows 20
range 3.42664900000000 3.45833600000000
endheader
time	ground_force1_vx	ground_force1_vy	ground_force1_vz	ground_force1_px	ground_force1_py	ground_force1_pz	ground_force2_vx	ground_force2_vy	ground_force2_vz	ground_force2_px	ground_force2_py	ground_force2_pz	ground_torque1_x	ground_torque1_y	ground_torque1_z	ground_torque2_x	ground_torque2_y	ground_torque2_z	
3.42664900000000	-46.27184600000000	815.55651499999999	52.24967400000000	0.10887000000000	0.00000000000000	0.11300600000000	-10.01354300000000	37.03313500000000	6.41785500000000	0.33395300000000	0.00000000000000	-0.06198900000000	0.00000000000000	20.66591900000000	0.00000000000000	0.00000000000000	3.28521300000000	0.00000000000000	
3.42833200000000	-46.79103700000000	813.65725699999996	52.03774300000000	0.10819900000000	0.00000000000000	0.11292100000000	-11.21399900000000	42.88497700000000	7.25824600000000	0.33798300000000	0.00000000000000	-0.06235100000000	0.00000000000000	20.63900400000000	0.00000000000000	0.00000000000000	3.75854600000000	0.00000000000000	
3.42998200000000	-47.32935500000000	811.62959899999998	51.80179000000000	0.10753200000000	0.00000000000000	0.11283200000000	-12.28885300000000	48.67689900000000	8.03765900000000	0.34168700000000	0.00000000000000	-0.06269100000000	0.00000000000000	20.61365200000000	0.00000000000000	0.00000000000000	4.20890400000000	0.00000000000000	
3.43164800000000	-47.88692500000000	809.47264099999995	51.54166100000000	0.10686800000000	0.00000000000000	0.11273900000000	-13.21182400000000	54.32490400000000	8.73952900000000	0.34509800000000	0.00000000000000	-0.06301400000000	0.00000000000000	20.58991800000000	0.00000000000000	0.00000000000000	4.62677400000000	0.00000000000000	
3.43332300000000	-48.46378700000000	807.18552999999997	51.25724600000000	0.10620800000000	0.00000000000000	0.11264200000000	-13.96594200000000	59.76941300000000	9.35269600000000	0.34824100000000	0.00000000000000	-0.06332100000000	0.00000000000000	20.56784300000000	0.00000000000000	0.00000000000000	5.00529800000000	0.00000000000000	
3.43498600000000	-49.05988700000000	804.76745700000004	50.94847200000000	0.10555000000000	0.00000000000000	0.11254100000000	-14.54360400000000	64.97665300000000	9.87151300000000	0.35114200000000	0.00000000000000	-0.06361500000000	0.00000000000000	20.54744800000000	0.00000000000000	0.00000000000000	5.34043400000000	0.00000000000000	
3.43665000000000	-49.67508200000000	802.21765100000005	50.61531100000000	0.10489400000000	0.00000000000000	0.11243600000000	-14.94585800000000	69.93770400000000	10.29547800000000	0.35381900000000	0.00000000000000	-0.06389800000000	0.00000000000000	20.52873800000000	0.00000000000000	0.00000000000000	5.63084000000000	0.00000000000000	
3.43831900000000	-50.30913200000000	799.53538100000003	50.25777500000000	0.10423900000000	0.00000000000000	0.11232800000000	-15.18109300000000	74.66566200000000	10.62850400000000	0.35629000000000	0.00000000000000	-0.06417300000000	0.00000000000000	20.51169900000000	0.00000000000000	0.00000000000000	5.87756300000000	0.00000000000000	
3.43998500000000	-50.96170200000000	796.71995000000004	49.87591700000000	0.10358500000000	0.00000000000000	0.11221500000000	-15.26335600000000	79.19148199999999	10.87795500000000	0.35857200000000	0.00000000000000	-0.06443900000000	0.00000000000000	20.49629700000000	0.00000000000000	0.00000000000000	6.08358000000000	0.00000000000000	
3.44165000000000	-51.63235600000000	793.77069300000005	49.46983500000000	0.10293200000000	0.00000000000000	0.11209900000000	-15.21049100000000	83.55907100000000	11.05355800000000	0.36067800000000	0.00000000000000	-0.06470000000000	0.00000000000000	20.48248100000000	0.00000000000000	0.00000000000000	6.25324900000000	0.00000000000000	
3.44332600000000	-52.32056000000000	790.68697399999996	49.03967000000000	0.10227900000000	0.00000000000000	0.11197900000000	-15.04229200000000	87.82017600000000	11.16631800000000	0.36261900000000	0.00000000000000	-0.06495500000000	0.00000000000000	20.47018100000000	0.00000000000000	0.00000000000000	6.39175200000000	0.00000000000000	
3.44498100000000	-53.02567600000000	787.46818800000005	48.58560500000000	0.10162500000000	0.00000000000000	0.11185500000000	-14.77881800000000	92.02951000000000	11.22750100000000	0.36440800000000	0.00000000000000	-0.06520600000000	0.00000000000000	20.45930800000000	0.00000000000000	0.00000000000000	6.50455400000000	0.00000000000000	
3.44665000000000	-53.74696600000000	784.11375499999997	48.10786700000000	0.10097000000000	0.00000000000000	0.11172800000000	-14.43896100000000	96.24046199999999	11.24778800000000	0.36605300000000	0.00000000000000	-0.06545200000000	0.00000000000000	20.44975400000000	0.00000000000000	0.00000000000000	6.59693800000000	0.00000000000000	
3.44832500000000	-54.48358600000000	780.62312099999997	47.60672800000000	0.10031300000000	0.00000000000000	0.11159700000000	-14.03936400000000	100.50163800000000	11.23659500000000	0.36756400000000	0.00000000000000	-0.06569600000000	0.00000000000000	20.44139200000000	0.00000000000000	0.00000000000000	6.67363200000000	0.00000000000000	
3.44998000000000	-55.23459300000000	776.99575700000003	47.08250100000000	0.09965400000000	0.00000000000000	0.11146200000000	-13.59368100000000	104.85433999999999	11.20162500000000	0.36894900000000	0.00000000000000	-0.06593700000000	0.00000000000000	20.43407700000000	0.00000000000000	0.00000000000000	6.73854300000000	0.00000000000000	
3.45164900000000	-55.99893700000000	773.23116000000005	46.53554500000000	0.09899100000000	0.00000000000000	0.11132400000000	-13.11220300000000	109.33102900000000	11.14861500000000	0.37021500000000	0.00000000000000	-0.06617600000000	0.00000000000000	20.42764700000000	0.00000000000000	0.00000000000000	6.79460300000000	0.00000000000000	
3.45332600000000	-56.77546700000000	769.32884799999999	45.96626100000000	0.09832600000000	0.00000000000000	0.11118300000000	-12.60178700000000	113.95468500000000	11.08127500000000	0.37136800000000	0.00000000000000	-0.06641300000000	0.00000000000000	20.42192100000000	0.00000000000000	0.00000000000000	6.84371100000000	0.00000000000000	
3.45497900000000	-57.56293100000000	765.28836699999999	45.37509600000000	0.09765600000000	0.00000000000000	0.11103900000000	-12.06606100000000	118.73898000000000	11.00139200000000	0.37241600000000	0.00000000000000	-0.06664800000000	0.00000000000000	20.41670100000000	0.00000000000000	0.00000000000000	6.88677400000000	0.00000000000000	
3.45664700000000	-58.35997700000000	761.10928699999999	44.76253600000000	0.09698200000000	0.00000000000000	0.11089100000000	-11.50582700000000	123.68907600000000	10.90904900000000	0.37336300000000	0.00000000000000	-0.06688200000000	0.00000000000000	20.41177200000000	0.00000000000000	0.00000000000000	6.92380800000000	0.00000000000000	
3.45833600000000	-59.16515300000000	756.79120100000000	44.12911400000000	0.09630300000000	0.00000000000000	0.11074000000000	-10.91959900000000	128.80288800000000	10.80293800000000	0.37421500000000	0.00000000000000	-0.06711400000000	0.00000000000000	20.40690400000000	0.00000000000000	0.00000000000000	6.95409100000000	0.00000000000000	
